<?xml version="1.0" encoding="UTF-8"?>
<svg width="172px" height="46px" viewBox="0 0 172 46" version="1.1" xmlns="http://www.w3.org/2000/svg" xmlns:xlink="http://www.w3.org/1999/xlink">
    <!-- Generator: Sketch 50.2 (55047) - http://www.bohemiancoding.com/sketch -->
    <title>sinergia.</title>
    <desc>Created with Sketch.</desc>
    <defs></defs>
    <g id="Page-1" stroke="none" stroke-width="1" fill="none" fill-rule="evenodd">
        <g id="Desktop-HD" transform="translate(-835.000000, -3069.000000)" fill="#FFFFFF">
            <g id="footer" transform="translate(-12.000000, 2934.000000)">
                <g id="contact-sidebar" transform="translate(846.000000, 123.000000)">
                    <path d="M1.248,41.232 L7.44,40.128 C7.50400032,41.0240045 7.84799688,41.7839969 8.472,42.408 C9.09600312,43.0320031 9.99999408,43.344 11.184,43.344 C12.0800045,43.344 12.7679976,43.144002 13.248,42.744 C13.7280024,42.343998 13.968,41.8560029 13.968,41.28 C13.968,40.3199952 13.1840078,39.6640018 11.616,39.312 L8.88,38.688 C6.44798784,38.1759974 4.65600576,37.2720065 3.504,35.976 C2.35199424,34.6799935 1.776,33.136009 1.776,31.344 C1.776,29.135989 2.64799128,27.2640077 4.392,25.728 C6.13600872,24.1919923 8.31998688,23.424 10.944,23.424 C14.0480155,23.424 16.3759922,24.1679926 17.928,25.656 C19.4800078,27.1440074 20.3359992,28.7679912 20.496,30.528 L14.448,31.632 C14.3519995,30.7679957 14.0240028,30.0640027 13.464,29.52 C12.9039972,28.9759973 12.0960053,28.704 11.04,28.704 C10.3359965,28.704 9.72800256,28.8959981 9.216,29.28 C8.70399744,29.6640019 8.448,30.159997 8.448,30.768 C8.448,31.7280048 9.07199376,32.3199989 10.32,32.544 L13.488,33.168 C15.888012,33.6480024 17.7119938,34.5599933 18.96,35.904 C20.2080062,37.2480067 20.832,38.8319909 20.832,40.656 C20.832,42.864011 20.0000083,44.7599921 18.336,46.344 C16.6719917,47.9280079 14.336015,48.72 11.328,48.72 C9.5679912,48.72 8.0080068,48.4640026 6.648,47.952 C5.2879932,47.4399974 4.2480036,46.7760041 3.528,45.96 C2.8079964,45.1439959 2.26400184,44.336004 1.896,43.536 C1.52799816,42.735996 1.31200032,41.9680037 1.248,41.232 Z M30.38,48 L23.084,48 L23.084,24.144 L30.38,24.144 L30.38,48 Z M23.708,19.872 C22.8759958,19.0399958 22.46,18.0320059 22.46,16.848 C22.46,15.6639941 22.8759958,14.6560042 23.708,13.824 C24.5400042,12.9919958 25.5319942,12.576 26.684,12.576 C27.8680059,12.576 28.8839958,12.9919958 29.732,13.824 C30.5800042,14.6560042 31.004,15.6639941 31.004,16.848 C31.004,18.0320059 30.5800042,19.0399958 29.732,19.872 C28.8839958,20.7040042 27.8680059,21.12 26.684,21.12 C25.5319942,21.12 24.5400042,20.7040042 23.708,19.872 Z M41.56,34.32 L41.56,48 L34.264,48 L34.264,24.144 L41.32,24.144 L41.32,26.88 C41.928003,25.8239947 42.8639937,25.000003 44.128,24.408 C45.3920063,23.815997 46.6799934,23.52 47.992,23.52 C50.8400142,23.52 52.9999926,24.4079911 54.472,26.184 C55.9440074,27.9600089 56.68,30.2399861 56.68,33.024 L56.68,48 L49.384,48 L49.384,34.272 C49.384,33.0239938 49.0560033,32.0240038 48.4,31.272 C47.7439967,30.5199962 46.7760064,30.144 45.496,30.144 C44.3119941,30.144 43.3600036,30.5359961 42.64,31.32 C41.9199964,32.1040039 41.56,33.1039939 41.56,34.32 Z M65.844,33.216 L75.396,33.216 C75.3319997,32.1279946 74.9080039,31.184004 74.124,30.384 C73.3399961,29.583996 72.1640078,29.184 70.596,29.184 C69.187993,29.184 68.0680042,29.5999958 67.236,30.432 C66.4039958,31.2640042 65.9400005,32.1919949 65.844,33.216 Z M75.924,39.408 L82.02,41.136 C81.411997,43.344011 80.1480096,45.1599929 78.228,46.584 C76.3079904,48.0080071 73.9080144,48.72 71.028,48.72 C67.5719827,48.72 64.6360121,47.5680115 62.22,45.264 C59.8039879,42.9599885 58.596,39.8720194 58.596,36 C58.596,32.2879814 59.7719882,29.2640117 62.124,26.928 C64.4760118,24.5919883 67.2679838,23.424 70.5,23.424 C74.2120186,23.424 77.1319894,24.5039892 79.26,26.664 C81.3880106,28.8240108 82.452,31.8239808 82.452,35.664 C82.452,36.8800061 82.4040005,37.6319986 82.308,37.92 L65.7,37.92 C65.7640003,39.2320066 66.3239947,40.3279956 67.38,41.208 C68.4360053,42.0880044 69.6839928,42.528 71.124,42.528 C73.5880123,42.528 75.1879963,41.4880104 75.924,39.408 Z M99.824,24.144 L99.824,31.344 C99.1519966,31.1839992 98.3840043,31.104 97.52,31.104 C95.8879918,31.104 94.5520052,31.6319947 93.512,32.688 C92.4719948,33.7440053 91.952,35.375989 91.952,37.584 L91.952,48 L84.656,48 L84.656,24.144 L91.712,24.144 L91.712,27.36 C92.2880029,26.1439939 93.1679941,25.2640027 94.352,24.72 C95.5360059,24.1759973 96.7199941,23.904 97.904,23.904 C98.6400037,23.904 99.2799973,23.9839992 99.824,24.144 Z M99.772,49.344 L106.204,47.52 C106.460001,48.7040059 107.043995,49.6639963 107.956,50.4 C108.868005,51.1360037 109.995993,51.504 111.34,51.504 C115.27602,51.504 117.244,49.4720203 117.244,45.408 L117.244,44.304 C116.059994,46.096009 113.932015,46.992 110.86,46.992 C107.691984,46.992 105.052011,45.888011 102.94,43.68 C100.827989,41.471989 99.772,38.7040166 99.772,35.376 C99.772,32.175984 100.81999,29.4320114 102.916,27.144 C105.01201,24.8559886 107.659984,23.712 110.86,23.712 C112.620009,23.712 114.059994,24.015997 115.18,24.624 C116.300006,25.232003 117.067998,25.9199962 117.484,26.688 L117.484,24.144 L124.444,24.144 L124.444,45.024 C124.444,48.7360186 123.372011,51.7999879 121.228,54.216 C119.083989,56.6320121 115.900021,57.84 111.676,57.84 C108.411984,57.84 105.700011,57.0000084 103.54,55.32 C101.379989,53.6399916 100.124002,51.6480115 99.772,49.344 Z M108.508,39.216 C109.468005,40.1760048 110.699992,40.656 112.204,40.656 C113.708008,40.656 114.931995,40.1760048 115.876,39.216 C116.820005,38.2559952 117.292,36.976008 117.292,35.376 C117.292,33.8079922 116.796005,32.5360049 115.804,31.56 C114.811995,30.5839951 113.612007,30.096 112.204,30.096 C110.795993,30.096 109.588005,30.5839951 108.58,31.56 C107.571995,32.5360049 107.068,33.8079922 107.068,35.376 C107.068,36.976008 107.547995,38.2559952 108.508,39.216 Z M135.384,48 L128.088,48 L128.088,24.144 L135.384,24.144 L135.384,48 Z M128.712,19.872 C127.879996,19.0399958 127.464,18.0320059 127.464,16.848 C127.464,15.6639941 127.879996,14.6560042 128.712,13.824 C129.544004,12.9919958 130.535994,12.576 131.688,12.576 C132.872006,12.576 133.887996,12.9919958 134.736,13.824 C135.584004,14.6560042 136.008,15.6639941 136.008,16.848 C136.008,18.0320059 135.584004,19.0399958 134.736,19.872 C133.887996,20.7040042 132.872006,21.12 131.688,21.12 C130.535994,21.12 129.544004,20.7040042 128.712,19.872 Z M137.828,41.424 C137.828,39.4079899 138.483993,37.7840062 139.796,36.552 C141.108007,35.3199938 142.80399,34.5440016 144.884,34.224 L150.5,33.36 C151.652006,33.1999992 152.228,32.6560046 152.228,31.728 C152.228,30.9919963 151.916003,30.3760025 151.292,29.88 C150.667997,29.3839975 149.812005,29.136 148.724,29.136 C147.507994,29.136 146.540004,29.4799966 145.82,30.168 C145.099996,30.8560034 144.708,31.6799952 144.644,32.64 L138.308,31.344 C138.468001,29.3599901 139.451991,27.5440082 141.26,25.896 C143.068009,24.2479918 145.571984,23.424 148.772,23.424 C152.388018,23.424 155.051991,24.2879914 156.764,26.016 C158.476009,27.7440086 159.332,29.9519866 159.332,32.64 L159.332,44.304 C159.332,45.8080075 159.427999,47.0399952 159.62,48 L153.044,48 C152.883999,47.3599968 152.804,46.4640058 152.804,45.312 C151.427993,47.5520112 149.188016,48.672 146.084,48.672 C143.555987,48.672 141.548007,47.9600071 140.06,46.536 C138.571993,45.1119929 137.828,43.4080099 137.828,41.424 Z M147.86,43.392 C149.108006,43.392 150.147996,43.0240037 150.98,42.288 C151.812004,41.5519963 152.228,40.3360085 152.228,38.64 L152.228,37.584 L147.716,38.304 C145.923991,38.5920014 145.028,39.4719926 145.028,40.944 C145.028,41.6160034 145.259998,42.1919976 145.724,42.672 C146.188002,43.1520024 146.899995,43.392 147.86,43.392 Z M164.128,46.992 C163.167995,45.999995 162.688,44.8320067 162.688,43.488 C162.688,42.1439933 163.167995,40.9920048 164.128,40.032 C165.088005,39.0719952 166.239993,38.592 167.584,38.592 C168.928007,38.592 170.087995,39.0719952 171.064,40.032 C172.040005,40.9920048 172.528,42.1439933 172.528,43.488 C172.528,44.8000066 172.040005,45.951995 171.064,46.944 C170.087995,47.936005 168.928007,48.432 167.584,48.432 C166.239993,48.432 165.088005,47.9520048 164.128,46.992 Z" id="sinergia."></path>
                </g>
            </g>
        </g>
    </g>
</svg>