<?xml version="1.0" encoding="UTF-8"?>
<svg width="159px" height="49px" viewBox="0 0 159 49" version="1.1" xmlns="http://www.w3.org/2000/svg" xmlns:xlink="http://www.w3.org/1999/xlink">
    <!-- Generator: Sketch 50.2 (55047) - http://www.bohemiancoding.com/sketch -->
    <title>logo</title>
    <desc>Created with Sketch.</desc>
    <defs></defs>
    <g id="Page-1" stroke="none" stroke-width="1" fill="none" fill-rule="evenodd">
        <g id="Desktop-HD" transform="translate(-227.000000, -135.000000)">
            <g id="hero" transform="translate(226.000000, 135.000000)">
                <g id="logo" transform="translate(1.000000, 0.000000)">
                    <g id="lines" transform="translate(2.000000, 46.000000)">
                        <rect id="Rectangle-2" fill="#9E96F1" x="0" y="0" width="22" height="3"></rect>
                        <rect id="Rectangle-2-Copy" fill="#FD576F" x="22" y="0" width="22" height="3"></rect>
                        <rect id="Rectangle-2-Copy-2" fill="#D5ECFF" x="44" y="0" width="22" height="3"></rect>
                        <rect id="Rectangle-2-Copy-3" fill="#FD9E10" x="66" y="0" width="22" height="3"></rect>
                    </g>
                    <path d="M0.248,29.232 L6.44,28.128 C6.50400032,29.0240045 6.84799688,29.7839969 7.472,30.408 C8.09600312,31.0320031 8.99999408,31.344 10.184,31.344 C11.0800045,31.344 11.7679976,31.144002 12.248,30.744 C12.7280024,30.343998 12.968,29.8560029 12.968,29.28 C12.968,28.3199952 12.1840078,27.6640018 10.616,27.312 L7.88,26.688 C5.44798784,26.1759974 3.65600576,25.2720065 2.504,23.976 C1.35199424,22.6799935 0.776,21.136009 0.776,19.344 C0.776,17.135989 1.64799128,15.2640077 3.392,13.728 C5.13600872,12.1919923 7.31998688,11.424 9.944,11.424 C13.0480155,11.424 15.3759922,12.1679926 16.928,13.656 C18.4800078,15.1440074 19.3359992,16.7679912 19.496,18.528 L13.448,19.632 C13.3519995,18.7679957 13.0240028,18.0640027 12.464,17.52 C11.9039972,16.9759973 11.0960053,16.704 10.04,16.704 C9.33599648,16.704 8.72800256,16.8959981 8.216,17.28 C7.70399744,17.6640019 7.448,18.159997 7.448,18.768 C7.448,19.7280048 8.07199376,20.3199989 9.32,20.544 L12.488,21.168 C14.888012,21.6480024 16.7119938,22.5599933 17.96,23.904 C19.2080062,25.2480067 19.832,26.8319909 19.832,28.656 C19.832,30.864011 19.0000083,32.7599921 17.336,34.344 C15.6719917,35.9280079 13.336015,36.72 10.328,36.72 C8.5679912,36.72 7.0080068,36.4640026 5.648,35.952 C4.2879932,35.4399974 3.2480036,34.7760041 2.528,33.96 C1.8079964,33.1439959 1.26400184,32.336004 0.896,31.536 C0.52799816,30.735996 0.31200032,29.9680037 0.248,29.232 Z M29.38,36 L22.084,36 L22.084,12.144 L29.38,12.144 L29.38,36 Z M22.708,7.872 C21.8759958,7.03999584 21.46,6.03200592 21.46,4.848 C21.46,3.66399408 21.8759958,2.65600416 22.708,1.824 C23.5400042,0.99199584 24.5319942,0.576 25.684,0.576 C26.8680059,0.576 27.8839958,0.99199584 28.732,1.824 C29.5800042,2.65600416 30.004,3.66399408 30.004,4.848 C30.004,6.03200592 29.5800042,7.03999584 28.732,7.872 C27.8839958,8.70400416 26.8680059,9.12 25.684,9.12 C24.5319942,9.12 23.5400042,8.70400416 22.708,7.872 Z M40.56,22.32 L40.56,36 L33.264,36 L33.264,12.144 L40.32,12.144 L40.32,14.88 C40.928003,13.8239947 41.8639937,13.000003 43.128,12.408 C44.3920063,11.815997 45.6799934,11.52 46.992,11.52 C49.8400142,11.52 51.9999926,12.4079911 53.472,14.184 C54.9440074,15.9600089 55.68,18.2399861 55.68,21.024 L55.68,36 L48.384,36 L48.384,22.272 C48.384,21.0239938 48.0560033,20.0240038 47.4,19.272 C46.7439967,18.5199962 45.7760064,18.144 44.496,18.144 C43.3119941,18.144 42.3600036,18.5359961 41.64,19.32 C40.9199964,20.1040039 40.56,21.1039939 40.56,22.32 Z M64.844,21.216 L74.396,21.216 C74.3319997,20.1279946 73.9080039,19.184004 73.124,18.384 C72.3399961,17.583996 71.1640078,17.184 69.596,17.184 C68.187993,17.184 67.0680042,17.5999958 66.236,18.432 C65.4039958,19.2640042 64.9400005,20.1919949 64.844,21.216 Z M74.924,27.408 L81.02,29.136 C80.411997,31.344011 79.1480096,33.1599929 77.228,34.584 C75.3079904,36.0080071 72.9080144,36.72 70.028,36.72 C66.5719827,36.72 63.6360121,35.5680115 61.22,33.264 C58.8039879,30.9599885 57.596,27.8720194 57.596,24 C57.596,20.2879814 58.7719882,17.2640117 61.124,14.928 C63.4760118,12.5919883 66.2679838,11.424 69.5,11.424 C73.2120186,11.424 76.1319894,12.5039892 78.26,14.664 C80.3880106,16.8240108 81.452,19.8239808 81.452,23.664 C81.452,24.8800061 81.4040005,25.6319986 81.308,25.92 L64.7,25.92 C64.7640003,27.2320066 65.3239947,28.3279956 66.38,29.208 C67.4360053,30.0880044 68.6839928,30.528 70.124,30.528 C72.5880123,30.528 74.1879963,29.4880104 74.924,27.408 Z M98.824,12.144 L98.824,19.344 C98.1519966,19.1839992 97.3840043,19.104 96.52,19.104 C94.8879918,19.104 93.5520052,19.6319947 92.512,20.688 C91.4719948,21.7440053 90.952,23.375989 90.952,25.584 L90.952,36 L83.656,36 L83.656,12.144 L90.712,12.144 L90.712,15.36 C91.2880029,14.1439939 92.1679941,13.2640027 93.352,12.72 C94.5360059,12.1759973 95.7199941,11.904 96.904,11.904 C97.6400037,11.904 98.2799973,11.9839992 98.824,12.144 Z M98.772,37.344 L105.204,35.52 C105.460001,36.7040059 106.043995,37.6639963 106.956,38.4 C107.868005,39.1360037 108.995993,39.504 110.34,39.504 C114.27602,39.504 116.244,37.4720203 116.244,33.408 L116.244,32.304 C115.059994,34.096009 112.932015,34.992 109.86,34.992 C106.691984,34.992 104.052011,33.888011 101.94,31.68 C99.8279894,29.471989 98.772,26.7040166 98.772,23.376 C98.772,20.175984 99.8199895,17.4320114 101.916,15.144 C104.01201,12.8559886 106.659984,11.712 109.86,11.712 C111.620009,11.712 113.059994,12.015997 114.18,12.624 C115.300006,13.232003 116.067998,13.9199962 116.484,14.688 L116.484,12.144 L123.444,12.144 L123.444,33.024 C123.444,36.7360186 122.372011,39.7999879 120.228,42.216 C118.083989,44.6320121 114.900021,45.84 110.676,45.84 C107.411984,45.84 104.700011,45.0000084 102.54,43.32 C100.379989,41.6399916 99.1240018,39.6480115 98.772,37.344 Z M107.508,27.216 C108.468005,28.1760048 109.699992,28.656 111.204,28.656 C112.708008,28.656 113.931995,28.1760048 114.876,27.216 C115.820005,26.2559952 116.292,24.976008 116.292,23.376 C116.292,21.8079922 115.796005,20.5360049 114.804,19.56 C113.811995,18.5839951 112.612007,18.096 111.204,18.096 C109.795993,18.096 108.588005,18.5839951 107.58,19.56 C106.571995,20.5360049 106.068,21.8079922 106.068,23.376 C106.068,24.976008 106.547995,26.2559952 107.508,27.216 Z M134.384,36 L127.088,36 L127.088,12.144 L134.384,12.144 L134.384,36 Z M127.712,7.872 C126.879996,7.03999584 126.464,6.03200592 126.464,4.848 C126.464,3.66399408 126.879996,2.65600416 127.712,1.824 C128.544004,0.99199584 129.535994,0.576 130.688,0.576 C131.872006,0.576 132.887996,0.99199584 133.736,1.824 C134.584004,2.65600416 135.008,3.66399408 135.008,4.848 C135.008,6.03200592 134.584004,7.03999584 133.736,7.872 C132.887996,8.70400416 131.872006,9.12 130.688,9.12 C129.535994,9.12 128.544004,8.70400416 127.712,7.872 Z M136.828,29.424 C136.828,27.4079899 137.483993,25.7840062 138.796,24.552 C140.108007,23.3199938 141.80399,22.5440016 143.884,22.224 L149.5,21.36 C150.652006,21.1999992 151.228,20.6560046 151.228,19.728 C151.228,18.9919963 150.916003,18.3760025 150.292,17.88 C149.667997,17.3839975 148.812005,17.136 147.724,17.136 C146.507994,17.136 145.540004,17.4799966 144.82,18.168 C144.099996,18.8560034 143.708,19.6799952 143.644,20.64 L137.308,19.344 C137.468001,17.3599901 138.451991,15.5440082 140.26,13.896 C142.068009,12.2479918 144.571984,11.424 147.772,11.424 C151.388018,11.424 154.051991,12.2879914 155.764,14.016 C157.476009,15.7440086 158.332,17.9519866 158.332,20.64 L158.332,32.304 C158.332,33.8080075 158.427999,35.0399952 158.62,36 L152.044,36 C151.883999,35.3599968 151.804,34.4640058 151.804,33.312 C150.427993,35.5520112 148.188016,36.672 145.084,36.672 C142.555987,36.672 140.548007,35.9600071 139.06,34.536 C137.571993,33.1119929 136.828,31.4080099 136.828,29.424 Z M146.86,31.392 C148.108006,31.392 149.147996,31.0240037 149.98,30.288 C150.812004,29.5519963 151.228,28.3360085 151.228,26.64 L151.228,25.584 L146.716,26.304 C144.923991,26.5920014 144.028,27.4719926 144.028,28.944 C144.028,29.6160034 144.259998,30.1919976 144.724,30.672 C145.188002,31.1520024 145.899995,31.392 146.86,31.392 Z" id="sinergia." fill="#000000"></path>
                </g>
            </g>
        </g>
    </g>
</svg>