<svg width="162" height="14" viewBox="0 0 162 14" fill="none" xmlns="http://www.w3.org/2000/svg">
<path fill-rule="evenodd" clip-rule="evenodd" d="M143.49 4.66171C143.49 4.66171 143.001 0.117996 136.064 0.117996C131.308 0.117996 128.328 2.87028 128.328 6.68114C128.328 10.4757 131.471 13.2117 135.591 13.2117C139.337 13.2117 140.379 11.1271 140.379 11.1271V13H143.099V6.274H135.217V8.04914H140.379C140.379 8.04914 140.037 11.2086 136.047 11.2086C133.1 11.2086 131.341 9.27057 131.341 6.68114C131.341 4.18942 132.839 2.12114 136.047 2.12114C140.461 2.12114 140.51 5.476 140.51 5.476L143.49 4.66171ZM39.854 0.345996H33.5514V13H39.854C44.1697 13 47.3942 10.5897 47.3942 6.68114C47.3942 2.75628 44.1697 0.345996 39.854 0.345996ZM36.4502 2.12114H38.828C42.5248 2.12114 44.3814 3.78228 44.3814 6.68114C44.3814 9.58 42.5248 11.2086 38.828 11.2086H36.4502V2.12114ZM62.3934 13H65.5202L59.5434 0.345996H54.5111L48.5342 13H51.6448L53.3874 9.17285H60.6508L62.3934 13ZM56.612 2.12114H57.4425L59.8365 7.38142H54.2017L56.612 2.12114ZM77.726 0.345996H80.6249V13H76.6674L70.0554 3.11457V13H67.1566V0.345996H71.114L77.726 10.2314V0.345996ZM83.5536 0.345996V13H86.4525V7.57685H89.5142C93.8462 7.57685 95.8005 6.37171 95.8005 3.96142C95.8005 1.55114 93.8462 0.345996 89.5142 0.345996H83.5536ZM86.4525 5.80171V2.12114H89.6771C91.5336 2.12114 92.7876 2.65857 92.7876 3.96142C92.7876 5.26428 91.5336 5.80171 89.6771 5.80171H86.4525ZM108.069 13H97.5969V0.345996H100.496V11.2086H108.069V13ZM109.7 0.345996V13H112.599V0.345996H109.7ZM126.692 13H115.537V0.345996H126.204V2.12114H118.435V5.80171H125.731V7.57685H118.435V11.2086H126.692V13ZM153.836 13.2117C148.95 13.2117 145.775 10.4757 145.775 6.66485C145.775 2.854 148.95 0.117996 153.836 0.117996C158.722 0.117996 161.897 2.854 161.897 6.66485C161.897 10.4757 158.722 13.2117 153.836 13.2117ZM153.836 2.12114C150.318 2.12114 148.787 4.17314 148.787 6.66485C148.787 9.15657 150.318 11.2086 153.836 11.2086C157.354 11.2086 158.885 9.15657 158.885 6.66485C158.885 4.17314 157.354 2.12114 153.836 2.12114ZM23.8567 7.05714L19.5143 2.71474L15.1719 7.05714L23.8567 7.05714ZM19.5143 13.5714L20.6002 12.4855L24.9426 8.14308L26.0286 7.05714L24.9426 5.97119L20.6002 1.62879L19.5143 0.54285L18.4283 1.62879L14.0859 5.97119L13.0143 7.04288L11.9426 5.9712L7.60017 1.6288L6.51423 0.542854L5.42828 1.6288L1.08588 5.9712L-6.10352e-05 7.05714L1.08588 8.14308L5.42828 12.4855L6.51423 13.5714L7.60017 12.4855L11.9426 8.14308L13.0143 7.0714L14.0859 8.14308L18.4283 12.4855L19.5143 13.5714ZM6.51422 2.71474L6.51423 2.71474L10.8566 7.05714L6.51423 11.3995L6.51422 2.71474Z" fill="#DC7240"/>
</svg>
